{
  "asset": {
    "generator": "glTF-Transform v4.4.1",
    "version": "2.0"
  },
  "accessors": [
    {
      "type": "SCALAR",
      "componentType": 5123,
      "count": 1797,
      "bufferView": 0,
      "byteOffset": 0
    },
    {
      "type": "SCALAR",
      "componentType": 5123,
      "count": 1725,
      "bufferView": 0,
      "byteOffset": 3596
    },
    {
      "type": "SCALAR",
      "componentType": 5123,
      "count": 6438,
      "bufferView": 0,
      "byteOffset": 7048
    },
    {
      "type": "SCALAR",
      "componentType": 5123,
      "count": 4980,
      "bufferView": 0,
      "byteOffset": 19924
    },
    {
      "type": "SCALAR",
      "componentType": 5123,
      "count": 1167,
      "bufferView": 0,
      "byteOffset": 29884
    },
    {
      "type": "VEC3",
      "componentType": 5126,
      "count": 480,
      "max": [
        0.1309727281332016,
        0.1788182109594345,
        0.1053207591176033
      ],
      "min": [
        -0.14475402235984802,
        -0.007033416070044041,
        -0.12291501462459564
      ],
      "bufferView": 1,
      "byteOffset": 0
    },
    {
      "type": "VEC3",
      "componentType": 5126,
      "count": 480,
      "bufferView": 1,
      "byteOffset": 12
    },
    {
      "type": "VEC2",
      "componentType": 5126,
      "count": 480,
      "bufferView": 1,
      "byteOffset": 24
    },
    {
      "type": "VEC3",
      "componentType": 5126,
      "count": 460,
      "max": [
        0.11727017909288406,
        0.1394072324037552,
        0.14785060286521912
      ],
      "min": [
        -0.13444285094738007,
        -0.005121094174683094,
        -0.1588074117898941
      ],
      "bufferView": 2,
      "byteOffset": 0
    },
    {
      "type": "VEC3",
      "componentType": 5126,
      "count": 460,
      "bufferView": 2,
      "byteOffset": 12
    },
    {
      "type": "VEC2",
      "componentType": 5126,
      "count": 460,
      "bufferView": 2,
      "byteOffset": 24
    },
    {
      "type": "VEC3",
      "componentType": 5126,
      "count": 2322,
      "max": [
        0.13705752789974213,
        0.17198063433170319,
        0.08180022984743118
      ],
      "min": [
        -0.12008963525295258,
        -0.0036067296750843525,
        -0.10453974455595016
      ],
      "bufferView": 3,
      "byteOffset": 0
    },
    {
      "type": "VEC3",
      "componentType": 5126,
      "count": 2322,
      "bufferView": 3,
      "byteOffset": 12
    },
    {
      "type": "VEC2",
      "componentType": 5126,
      "count": 2322,
      "bufferView": 3,
      "byteOffset": 24
    },
    {
      "type": "VEC3",
      "componentType": 5126,
      "count": 1762,
      "max": [
        0.10136369615793228,
        0.145782008767128,
        0.1351529061794281
      ],
      "min": [
        -0.0853729248046875,
        -0.003715887665748596,
        -0.08777454495429993
      ],
      "bufferView": 4,
      "byteOffset": 0
    },
    {
      "type": "VEC3",
      "componentType": 5126,
      "count": 1762,
      "bufferView": 4,
      "byteOffset": 12
    },
    {
      "type": "VEC2",
      "componentType": 5126,
      "count": 1762,
      "bufferView": 4,
      "byteOffset": 24
    },
    {
      "type": "VEC3",
      "componentType": 5126,
      "count": 328,
      "max": [
        0.0946883112192154,
        0.11952559649944305,
        0.08574917167425156
      ],
      "min": [
        -0.09359151124954224,
        -0.004132588393986225,
        -0.13055673241615295
      ],
      "bufferView": 5,
      "byteOffset": 0
    },
    {
      "type": "VEC3",
      "componentType": 5126,
      "count": 328,
      "bufferView": 5,
      "byteOffset": 12
    },
    {
      "type": "VEC2",
      "componentType": 5126,
      "count": 328,
      "bufferView": 5,
      "byteOffset": 24
    }
  ],
  "bufferViews": [
    {
      "buffer": 0,
      "byteOffset": 0,
      "byteLength": 32220,
      "target": 34963
    },
    {
      "buffer": 0,
      "byteOffset": 32220,
      "byteLength": 15360,
      "byteStride": 32,
      "target": 34962
    },
    {
      "buffer": 0,
      "byteOffset": 47580,
      "byteLength": 14720,
      "byteStride": 32,
      "target": 34962
    },
    {
      "buffer": 0,
      "byteOffset": 62300,
      "byteLength": 74304,
      "byteStride": 32,
      "target": 34962
    },
    {
      "buffer": 0,
      "byteOffset": 136604,
      "byteLength": 56384,
      "byteStride": 32,
      "target": 34962
    },
    {
      "buffer": 0,
      "byteOffset": 192988,
      "byteLength": 10496,
      "byteStride": 32,
      "target": 34962
    }
  ],
  "samplers": [
    {
      "magFilter": 9729,
      "minFilter": 9987,
      "wrapS": 10497,
      "wrapT": 10497
    }
  ],
  "textures": [
    {
      "source": 1,
      "sampler": 0
    },
    {
      "source": 0,
      "sampler": 0
    },
    {
      "source": 2,
      "sampler": 0
    }
  ],
  "images": [
    {
      "name": "celandine_01_nor_gl",
      "mimeType": "image/jpeg",
      "uri": "textures/celandine_01_nor_gl_2k.jpg"
    },
    {
      "name": "celandine_01_diff-celandine_01_alpha",
      "mimeType": "image/jpeg",
      "uri": "textures/celandine_01_diff_2k.jpg"
    },
    {
      "name": "celandine_01_rough",
      "mimeType": "image/jpeg",
      "uri": "textures/celandine_01_arm_2k.jpg"
    }
  ],
  "buffers": [
    {
      "uri": "celandine_01_lod1.bin",
      "byteLength": 203484
    }
  ],
  "materials": [
    {
      "name": "celandine_01",
      "alphaMode": "BLEND",
      "doubleSided": true,
      "pbrMetallicRoughness": {
        "metallicFactor": 0,
        "baseColorTexture": {
          "index": 0
        },
        "metallicRoughnessTexture": {
          "index": 2
        }
      },
      "normalTexture": {
        "index": 1
      }
    }
  ],
  "meshes": [
    {
      "name": "Plane.006",
      "primitives": [
        {
          "attributes": {
            "POSITION": 5,
            "NORMAL": 6,
            "TEXCOORD_0": 7
          },
          "mode": 4,
          "material": 0,
          "indices": 0
        }
      ]
    },
    {
      "name": "Plane.007",
      "primitives": [
        {
          "attributes": {
            "POSITION": 8,
            "NORMAL": 9,
            "TEXCOORD_0": 10
          },
          "mode": 4,
          "material": 0,
          "indices": 1
        }
      ]
    },
    {
      "name": "Plane.008",
      "primitives": [
        {
          "attributes": {
            "POSITION": 11,
            "NORMAL": 12,
            "TEXCOORD_0": 13
          },
          "mode": 4,
          "material": 0,
          "indices": 2
        }
      ]
    },
    {
      "name": "Plane.009",
      "primitives": [
        {
          "attributes": {
            "POSITION": 14,
            "NORMAL": 15,
            "TEXCOORD_0": 16
          },
          "mode": 4,
          "material": 0,
          "indices": 3
        }
      ]
    },
    {
      "name": "Plane.010",
      "primitives": [
        {
          "attributes": {
            "POSITION": 17,
            "NORMAL": 18,
            "TEXCOORD_0": 19
          },
          "mode": 4,
          "material": 0,
          "indices": 4
        }
      ]
    }
  ],
  "nodes": [
    {
      "name": "celandine_01_a_LOD0",
      "translation": [
        -1,
        0,
        0
      ],
      "mesh": 0
    },
    {
      "name": "celandine_01_b_LOD0",
      "translation": [
        -0.5,
        0,
        0
      ],
      "mesh": 1
    },
    {
      "name": "celandine_01_c_LOD0",
      "mesh": 2
    },
    {
      "name": "celandine_01_d_LOD0",
      "translation": [
        0.5,
        0,
        0
      ],
      "mesh": 3
    },
    {
      "name": "celandine_01_e_LOD0",
      "translation": [
        1,
        0,
        0
      ],
      "mesh": 4
    }
  ],
  "scenes": [
    {
      "name": "Scene",
      "nodes": [
        0,
        1,
        2,
        3,
        4
      ]
    }
  ],
  "scene": 0
}