{
  "asset": {
    "generator": "glTF-Transform v4.4.1",
    "version": "2.0"
  },
  "accessors": [
    {
      "type": "SCALAR",
      "componentType": 5123,
      "count": 2445,
      "bufferView": 0,
      "byteOffset": 0
    },
    {
      "type": "SCALAR",
      "componentType": 5123,
      "count": 13146,
      "bufferView": 0,
      "byteOffset": 4892
    },
    {
      "type": "SCALAR",
      "componentType": 5123,
      "count": 3540,
      "bufferView": 0,
      "byteOffset": 31184
    },
    {
      "type": "SCALAR",
      "componentType": 5123,
      "count": 873,
      "bufferView": 0,
      "byteOffset": 38264
    },
    {
      "type": "SCALAR",
      "componentType": 5123,
      "count": 813,
      "bufferView": 0,
      "byteOffset": 40012
    },
    {
      "type": "SCALAR",
      "componentType": 5123,
      "count": 960,
      "bufferView": 0,
      "byteOffset": 41640
    },
    {
      "type": "SCALAR",
      "componentType": 5123,
      "count": 1911,
      "bufferView": 0,
      "byteOffset": 43560
    },
    {
      "type": "SCALAR",
      "componentType": 5123,
      "count": 4182,
      "bufferView": 0,
      "byteOffset": 47384
    },
    {
      "type": "SCALAR",
      "componentType": 5123,
      "count": 6480,
      "bufferView": 0,
      "byteOffset": 55748
    },
    {
      "type": "SCALAR",
      "componentType": 5123,
      "count": 17322,
      "bufferView": 0,
      "byteOffset": 68708
    },
    {
      "type": "SCALAR",
      "componentType": 5123,
      "count": 15861,
      "bufferView": 0,
      "byteOffset": 103352
    },
    {
      "type": "SCALAR",
      "componentType": 5123,
      "count": 117,
      "bufferView": 0,
      "byteOffset": 135076
    },
    {
      "type": "SCALAR",
      "componentType": 5123,
      "count": 237,
      "bufferView": 0,
      "byteOffset": 135312
    },
    {
      "type": "SCALAR",
      "componentType": 5123,
      "count": 84,
      "bufferView": 0,
      "byteOffset": 135788
    },
    {
      "type": "SCALAR",
      "componentType": 5123,
      "count": 93,
      "bufferView": 0,
      "byteOffset": 135956
    },
    {
      "type": "SCALAR",
      "componentType": 5123,
      "count": 186,
      "bufferView": 0,
      "byteOffset": 136144
    },
    {
      "type": "SCALAR",
      "componentType": 5123,
      "count": 177,
      "bufferView": 0,
      "byteOffset": 136516
    },
    {
      "type": "VEC3",
      "componentType": 5126,
      "count": 871,
      "max": [
        0.10491206496953964,
        0.13794554769992828,
        0.07973111420869827
      ],
      "min": [
        -0.07992804050445557,
        -0.0024811276234686375,
        -0.08258192986249924
      ],
      "bufferView": 1,
      "byteOffset": 0
    },
    {
      "type": "VEC3",
      "componentType": 5126,
      "count": 871,
      "bufferView": 1,
      "byteOffset": 12
    },
    {
      "type": "VEC2",
      "componentType": 5126,
      "count": 871,
      "bufferView": 1,
      "byteOffset": 24
    },
    {
      "type": "VEC3",
      "componentType": 5126,
      "count": 4589,
      "max": [
        0.13808774948120117,
        0.14364951848983765,
        0.1419035643339157
      ],
      "min": [
        -0.14600969851016998,
        -0.025613101199269295,
        -0.1338363140821457
      ],
      "bufferView": 2,
      "byteOffset": 0
    },
    {
      "type": "VEC3",
      "componentType": 5126,
      "count": 4589,
      "bufferView": 2,
      "byteOffset": 12
    },
    {
      "type": "VEC2",
      "componentType": 5126,
      "count": 4589,
      "bufferView": 2,
      "byteOffset": 24
    },
    {
      "type": "VEC3",
      "componentType": 5126,
      "count": 1310,
      "max": [
        0.1113336980342865,
        0.1743771880865097,
        0.11334384977817535
      ],
      "min": [
        -0.07645512372255325,
        -0.003344380995258689,
        -0.0876847505569458
      ],
      "bufferView": 3,
      "byteOffset": 0
    },
    {
      "type": "VEC3",
      "componentType": 5126,
      "count": 1310,
      "bufferView": 3,
      "byteOffset": 12
    },
    {
      "type": "VEC2",
      "componentType": 5126,
      "count": 1310,
      "bufferView": 3,
      "byteOffset": 24
    },
    {
      "type": "VEC3",
      "componentType": 5126,
      "count": 335,
      "max": [
        0.06602869927883148,
        0.28376469016075134,
        0.074491485953331
      ],
      "min": [
        -0.08391976356506348,
        -0.0018983071204274893,
        -0.060298189520835876
      ],
      "bufferView": 4,
      "byteOffset": 0
    },
    {
      "type": "VEC3",
      "componentType": 5126,
      "count": 335,
      "bufferView": 4,
      "byteOffset": 12
    },
    {
      "type": "VEC2",
      "componentType": 5126,
      "count": 335,
      "bufferView": 4,
      "byteOffset": 24
    },
    {
      "type": "VEC3",
      "componentType": 5126,
      "count": 313,
      "max": [
        0.08137238770723343,
        0.3169684112071991,
        0.08402851223945618
      ],
      "min": [
        -0.0795840173959732,
        -0.005577980075031519,
        -0.07450296729803085
      ],
      "bufferView": 5,
      "byteOffset": 0
    },
    {
      "type": "VEC3",
      "componentType": 5126,
      "count": 313,
      "bufferView": 5,
      "byteOffset": 12
    },
    {
      "type": "VEC2",
      "componentType": 5126,
      "count": 313,
      "bufferView": 5,
      "byteOffset": 24
    },
    {
      "type": "VEC3",
      "componentType": 5126,
      "count": 375,
      "max": [
        0.08640214055776596,
        0.23052458465099335,
        0.07759398221969604
      ],
      "min": [
        -0.06662868708372116,
        -0.00573160033673048,
        -0.050562914460897446
      ],
      "bufferView": 6,
      "byteOffset": 0
    },
    {
      "type": "VEC3",
      "componentType": 5126,
      "count": 375,
      "bufferView": 6,
      "byteOffset": 12
    },
    {
      "type": "VEC2",
      "componentType": 5126,
      "count": 375,
      "bufferView": 6,
      "byteOffset": 24
    },
    {
      "type": "VEC3",
      "componentType": 5126,
      "count": 685,
      "max": [
        0.07380075007677078,
        0.09223899245262146,
        0.09204978495836258
      ],
      "min": [
        -0.09215594828128815,
        -0.007656285539269447,
        -0.09784233570098877
      ],
      "bufferView": 7,
      "byteOffset": 0
    },
    {
      "type": "VEC3",
      "componentType": 5126,
      "count": 685,
      "bufferView": 7,
      "byteOffset": 12
    },
    {
      "type": "VEC2",
      "componentType": 5126,
      "count": 685,
      "bufferView": 7,
      "byteOffset": 24
    },
    {
      "type": "VEC3",
      "componentType": 5126,
      "count": 1508,
      "max": [
        0.11217431724071503,
        0.12322665750980377,
        0.09483355283737183
      ],
      "min": [
        -0.08015616983175278,
        -0.02140900306403637,
        -0.10802191495895386
      ],
      "bufferView": 8,
      "byteOffset": 0
    },
    {
      "type": "VEC3",
      "componentType": 5126,
      "count": 1508,
      "bufferView": 8,
      "byteOffset": 12
    },
    {
      "type": "VEC2",
      "componentType": 5126,
      "count": 1508,
      "bufferView": 8,
      "byteOffset": 24
    },
    {
      "type": "VEC3",
      "componentType": 5126,
      "count": 2467,
      "max": [
        0.10376648604869843,
        0.19480454921722412,
        0.10901965200901031
      ],
      "min": [
        -0.11184881627559662,
        -0.02293974906206131,
        -0.1123582273721695
      ],
      "bufferView": 9,
      "byteOffset": 0
    },
    {
      "type": "VEC3",
      "componentType": 5126,
      "count": 2467,
      "bufferView": 9,
      "byteOffset": 12
    },
    {
      "type": "VEC2",
      "componentType": 5126,
      "count": 2467,
      "bufferView": 9,
      "byteOffset": 24
    },
    {
      "type": "VEC3",
      "componentType": 5126,
      "count": 6396,
      "max": [
        0.1642143875360489,
        0.13918423652648926,
        0.16885031759738922
      ],
      "min": [
        -0.15279462933540344,
        -0.007504553068429232,
        -0.15770849585533142
      ],
      "bufferView": 10,
      "byteOffset": 0
    },
    {
      "type": "VEC3",
      "componentType": 5126,
      "count": 6396,
      "bufferView": 10,
      "byteOffset": 12
    },
    {
      "type": "VEC2",
      "componentType": 5126,
      "count": 6396,
      "bufferView": 10,
      "byteOffset": 24
    },
    {
      "type": "VEC3",
      "componentType": 5126,
      "count": 5759,
      "max": [
        0.13359317183494568,
        0.12087008357048035,
        0.11970172822475433
      ],
      "min": [
        -0.14519789814949036,
        -0.021477332338690758,
        -0.13536815345287323
      ],
      "bufferView": 11,
      "byteOffset": 0
    },
    {
      "type": "VEC3",
      "componentType": 5126,
      "count": 5759,
      "bufferView": 11,
      "byteOffset": 12
    },
    {
      "type": "VEC2",
      "componentType": 5126,
      "count": 5759,
      "bufferView": 11,
      "byteOffset": 24
    },
    {
      "type": "VEC3",
      "componentType": 5126,
      "count": 43,
      "max": [
        0.013999270275235176,
        0.08086099475622177,
        0.028342707082629204
      ],
      "min": [
        -0.0020321784541010857,
        -0.0015277046477422118,
        -0.0006610661512240767
      ],
      "bufferView": 12,
      "byteOffset": 0
    },
    {
      "type": "VEC3",
      "componentType": 5126,
      "count": 43,
      "bufferView": 12,
      "byteOffset": 12
    },
    {
      "type": "VEC2",
      "componentType": 5126,
      "count": 43,
      "bufferView": 12,
      "byteOffset": 24
    },
    {
      "type": "VEC3",
      "componentType": 5126,
      "count": 87,
      "max": [
        0.044046659022569656,
        0.10979903489351273,
        0.022762246429920197
      ],
      "min": [
        -0.023301100358366966,
        -0.0026543086860328913,
        -0.051006510853767395
      ],
      "bufferView": 13,
      "byteOffset": 0
    },
    {
      "type": "VEC3",
      "componentType": 5126,
      "count": 87,
      "bufferView": 13,
      "byteOffset": 12
    },
    {
      "type": "VEC2",
      "componentType": 5126,
      "count": 87,
      "bufferView": 13,
      "byteOffset": 24
    },
    {
      "type": "VEC3",
      "componentType": 5126,
      "count": 30,
      "max": [
        0.019395504146814346,
        0.057911694049835205,
        0.000264353962847963
      ],
      "min": [
        -0.004174281843006611,
        -0.002296786056831479,
        -0.034134380519390106
      ],
      "bufferView": 14,
      "byteOffset": 0
    },
    {
      "type": "VEC3",
      "componentType": 5126,
      "count": 30,
      "bufferView": 14,
      "byteOffset": 12
    },
    {
      "type": "VEC2",
      "componentType": 5126,
      "count": 30,
      "bufferView": 14,
      "byteOffset": 24
    },
    {
      "type": "VEC3",
      "componentType": 5126,
      "count": 35,
      "max": [
        0.04206297919154167,
        0.04515690729022026,
        0.034244898706674576
      ],
      "min": [
        -0.0009768229210749269,
        -0.00266977958381176,
        -0.054337579756975174
      ],
      "bufferView": 15,
      "byteOffset": 0
    },
    {
      "type": "VEC3",
      "componentType": 5126,
      "count": 35,
      "bufferView": 15,
      "byteOffset": 12
    },
    {
      "type": "VEC2",
      "componentType": 5126,
      "count": 35,
      "bufferView": 15,
      "byteOffset": 24
    },
    {
      "type": "VEC3",
      "componentType": 5126,
      "count": 66,
      "max": [
        0.0585113987326622,
        0.0448271669447422,
        0.051811572164297104
      ],
      "min": [
        -0.026754053309559822,
        -0.0046236226335167885,
        -0.022340359166264534
      ],
      "bufferView": 16,
      "byteOffset": 0
    },
    {
      "type": "VEC3",
      "componentType": 5126,
      "count": 66,
      "bufferView": 16,
      "byteOffset": 12
    },
    {
      "type": "VEC2",
      "componentType": 5126,
      "count": 66,
      "bufferView": 16,
      "byteOffset": 24
    },
    {
      "type": "VEC3",
      "componentType": 5126,
      "count": 59,
      "max": [
        0.05218852683901787,
        0.044163916260004044,
        0.023381344974040985
      ],
      "min": [
        -0.0030071011278778315,
        -0.0029108894523233175,
        -0.04550879821181297
      ],
      "bufferView": 17,
      "byteOffset": 0
    },
    {
      "type": "VEC3",
      "componentType": 5126,
      "count": 59,
      "bufferView": 17,
      "byteOffset": 12
    },
    {
      "type": "VEC2",
      "componentType": 5126,
      "count": 59,
      "bufferView": 17,
      "byteOffset": 24
    }
  ],
  "bufferViews": [
    {
      "buffer": 0,
      "byteOffset": 0,
      "byteLength": 136872,
      "target": 34963
    },
    {
      "buffer": 0,
      "byteOffset": 136872,
      "byteLength": 27872,
      "byteStride": 32,
      "target": 34962
    },
    {
      "buffer": 0,
      "byteOffset": 164744,
      "byteLength": 146848,
      "byteStride": 32,
      "target": 34962
    },
    {
      "buffer": 0,
      "byteOffset": 311592,
      "byteLength": 41920,
      "byteStride": 32,
      "target": 34962
    },
    {
      "buffer": 0,
      "byteOffset": 353512,
      "byteLength": 10720,
      "byteStride": 32,
      "target": 34962
    },
    {
      "buffer": 0,
      "byteOffset": 364232,
      "byteLength": 10016,
      "byteStride": 32,
      "target": 34962
    },
    {
      "buffer": 0,
      "byteOffset": 374248,
      "byteLength": 12000,
      "byteStride": 32,
      "target": 34962
    },
    {
      "buffer": 0,
      "byteOffset": 386248,
      "byteLength": 21920,
      "byteStride": 32,
      "target": 34962
    },
    {
      "buffer": 0,
      "byteOffset": 408168,
      "byteLength": 48256,
      "byteStride": 32,
      "target": 34962
    },
    {
      "buffer": 0,
      "byteOffset": 456424,
      "byteLength": 78944,
      "byteStride": 32,
      "target": 34962
    },
    {
      "buffer": 0,
      "byteOffset": 535368,
      "byteLength": 204672,
      "byteStride": 32,
      "target": 34962
    },
    {
      "buffer": 0,
      "byteOffset": 740040,
      "byteLength": 184288,
      "byteStride": 32,
      "target": 34962
    },
    {
      "buffer": 0,
      "byteOffset": 924328,
      "byteLength": 1376,
      "byteStride": 32,
      "target": 34962
    },
    {
      "buffer": 0,
      "byteOffset": 925704,
      "byteLength": 2784,
      "byteStride": 32,
      "target": 34962
    },
    {
      "buffer": 0,
      "byteOffset": 928488,
      "byteLength": 960,
      "byteStride": 32,
      "target": 34962
    },
    {
      "buffer": 0,
      "byteOffset": 929448,
      "byteLength": 1120,
      "byteStride": 32,
      "target": 34962
    },
    {
      "buffer": 0,
      "byteOffset": 930568,
      "byteLength": 2112,
      "byteStride": 32,
      "target": 34962
    },
    {
      "buffer": 0,
      "byteOffset": 932680,
      "byteLength": 1888,
      "byteStride": 32,
      "target": 34962
    }
  ],
  "samplers": [
    {
      "magFilter": 9729,
      "minFilter": 9987,
      "wrapS": 10497,
      "wrapT": 10497
    }
  ],
  "textures": [
    {
      "source": 1,
      "sampler": 0
    },
    {
      "source": 0,
      "sampler": 0
    },
    {
      "source": 2,
      "sampler": 0
    }
  ],
  "images": [
    {
      "name": "grass_medium_01_nor_gl",
      "mimeType": "image/jpeg",
      "uri": "textures/grass_medium_01_nor_gl_2k.jpg"
    },
    {
      "name": "grass_medium_01_diff-grass_medium_01_alpha",
      "mimeType": "image/jpeg",
      "uri": "textures/grass_medium_01_diff_2k.jpg"
    },
    {
      "name": "grass_medium_01_rough",
      "mimeType": "image/jpeg",
      "uri": "textures/grass_medium_01_arm_2k.jpg"
    }
  ],
  "buffers": [
    {
      "uri": "grass_medium_01_lod1.bin",
      "byteLength": 934568
    }
  ],
  "materials": [
    {
      "name": "grass_medium_01",
      "alphaMode": "BLEND",
      "doubleSided": true,
      "pbrMetallicRoughness": {
        "metallicFactor": 0,
        "baseColorTexture": {
          "index": 0
        },
        "metallicRoughnessTexture": {
          "index": 2
        }
      },
      "normalTexture": {
        "index": 1
      }
    }
  ],
  "meshes": [
    {
      "name": "Plane.037",
      "primitives": [
        {
          "attributes": {
            "POSITION": 17,
            "NORMAL": 18,
            "TEXCOORD_0": 19
          },
          "mode": 4,
          "material": 0,
          "indices": 0
        }
      ]
    },
    {
      "name": "Plane.038",
      "primitives": [
        {
          "attributes": {
            "POSITION": 20,
            "NORMAL": 21,
            "TEXCOORD_0": 22
          },
          "mode": 4,
          "material": 0,
          "indices": 1
        }
      ]
    },
    {
      "name": "Plane.039",
      "primitives": [
        {
          "attributes": {
            "POSITION": 23,
            "NORMAL": 24,
            "TEXCOORD_0": 25
          },
          "mode": 4,
          "material": 0,
          "indices": 2
        }
      ]
    },
    {
      "name": "Plane.042",
      "primitives": [
        {
          "attributes": {
            "POSITION": 26,
            "NORMAL": 27,
            "TEXCOORD_0": 28
          },
          "mode": 4,
          "material": 0,
          "indices": 3
        }
      ]
    },
    {
      "name": "Plane.043",
      "primitives": [
        {
          "attributes": {
            "POSITION": 29,
            "NORMAL": 30,
            "TEXCOORD_0": 31
          },
          "mode": 4,
          "material": 0,
          "indices": 4
        }
      ]
    },
    {
      "name": "Plane.045",
      "primitives": [
        {
          "attributes": {
            "POSITION": 32,
            "NORMAL": 33,
            "TEXCOORD_0": 34
          },
          "mode": 4,
          "material": 0,
          "indices": 5
        }
      ]
    },
    {
      "name": "Plane.047",
      "primitives": [
        {
          "attributes": {
            "POSITION": 35,
            "NORMAL": 36,
            "TEXCOORD_0": 37
          },
          "mode": 4,
          "material": 0,
          "indices": 6
        }
      ]
    },
    {
      "name": "Plane.048",
      "primitives": [
        {
          "attributes": {
            "POSITION": 38,
            "NORMAL": 39,
            "TEXCOORD_0": 40
          },
          "mode": 4,
          "material": 0,
          "indices": 7
        }
      ]
    },
    {
      "name": "Plane.050",
      "primitives": [
        {
          "attributes": {
            "POSITION": 41,
            "NORMAL": 42,
            "TEXCOORD_0": 43
          },
          "mode": 4,
          "material": 0,
          "indices": 8
        }
      ]
    },
    {
      "name": "Plane.051",
      "primitives": [
        {
          "attributes": {
            "POSITION": 44,
            "NORMAL": 45,
            "TEXCOORD_0": 46
          },
          "mode": 4,
          "material": 0,
          "indices": 9
        }
      ]
    },
    {
      "name": "Plane.053",
      "primitives": [
        {
          "attributes": {
            "POSITION": 47,
            "NORMAL": 48,
            "TEXCOORD_0": 49
          },
          "mode": 4,
          "material": 0,
          "indices": 10
        }
      ]
    },
    {
      "name": "Plane.054",
      "primitives": [
        {
          "attributes": {
            "POSITION": 50,
            "NORMAL": 51,
            "TEXCOORD_0": 52
          },
          "mode": 4,
          "material": 0,
          "indices": 11
        }
      ]
    },
    {
      "name": "Plane.055",
      "primitives": [
        {
          "attributes": {
            "POSITION": 53,
            "NORMAL": 54,
            "TEXCOORD_0": 55
          },
          "mode": 4,
          "material": 0,
          "indices": 12
        }
      ]
    },
    {
      "name": "Plane.056",
      "primitives": [
        {
          "attributes": {
            "POSITION": 56,
            "NORMAL": 57,
            "TEXCOORD_0": 58
          },
          "mode": 4,
          "material": 0,
          "indices": 13
        }
      ]
    },
    {
      "name": "Plane.057",
      "primitives": [
        {
          "attributes": {
            "POSITION": 59,
            "NORMAL": 60,
            "TEXCOORD_0": 61
          },
          "mode": 4,
          "material": 0,
          "indices": 14
        }
      ]
    },
    {
      "name": "Plane.058",
      "primitives": [
        {
          "attributes": {
            "POSITION": 62,
            "NORMAL": 63,
            "TEXCOORD_0": 64
          },
          "mode": 4,
          "material": 0,
          "indices": 15
        }
      ]
    },
    {
      "name": "Plane.059",
      "primitives": [
        {
          "attributes": {
            "POSITION": 65,
            "NORMAL": 66,
            "TEXCOORD_0": 67
          },
          "mode": 4,
          "material": 0,
          "indices": 16
        }
      ]
    }
  ],
  "nodes": [
    {
      "name": "grass_medium_01_small_a_LOD0",
      "mesh": 0
    },
    {
      "name": "grass_medium_01_large_b_LOD0",
      "translation": [
        -1.9999998807907104,
        0,
        0
      ],
      "mesh": 1
    },
    {
      "name": "grass_medium_01_mid_b_LOD0",
      "translation": [
        -0.7999995946884155,
        0,
        0
      ],
      "mesh": 2
    },
    {
      "name": "grass_medium_01_tall_b_LOD0",
      "translation": [
        1.1999999284744263,
        0,
        0
      ],
      "mesh": 3
    },
    {
      "name": "grass_medium_01_tall_a_LOD0",
      "translation": [
        0.7999998331069946,
        0,
        0
      ],
      "mesh": 4
    },
    {
      "name": "grass_medium_01_tall_c_LOD0",
      "translation": [
        1.6000001430511475,
        0,
        0
      ],
      "mesh": 5
    },
    {
      "name": "grass_medium_01_small_b_LOD0",
      "translation": [
        0.4000002443790436,
        0,
        0
      ],
      "mesh": 6
    },
    {
      "name": "grass_medium_01_mid_c_LOD0",
      "translation": [
        -0.3999999463558197,
        0,
        0
      ],
      "mesh": 7
    },
    {
      "name": "grass_medium_01_mid_a_LOD0",
      "translation": [
        -1.1999996900558472,
        0,
        0
      ],
      "mesh": 8
    },
    {
      "name": "grass_medium_01_large_a_LOD0",
      "translation": [
        -2.3999998569488525,
        0,
        0
      ],
      "mesh": 9
    },
    {
      "name": "grass_medium_01_large_c_LOD0",
      "translation": [
        -1.5999997854232788,
        0,
        0
      ],
      "mesh": 10
    },
    {
      "name": "grass_medium_01_tiny_c_LOD0",
      "translation": [
        2.40000057220459,
        0,
        0
      ],
      "mesh": 11
    },
    {
      "name": "grass_medium_01_tiny_a_LOD0",
      "translation": [
        2.000000476837158,
        0,
        0
      ],
      "mesh": 12
    },
    {
      "name": "grass_medium_01_tiny_b_LOD0",
      "translation": [
        2.200000762939453,
        0,
        0
      ],
      "mesh": 13
    },
    {
      "name": "grass_medium_01_tiny_d_LOD0",
      "translation": [
        2.6000003814697266,
        0,
        0
      ],
      "mesh": 14
    },
    {
      "name": "grass_medium_01_tiny_e_LOD0",
      "translation": [
        2.8000001907348633,
        0,
        0
      ],
      "mesh": 15
    },
    {
      "name": "grass_medium_01_tiny_f_LOD0",
      "translation": [
        3.000000476837158,
        0,
        0
      ],
      "mesh": 16
    }
  ],
  "scenes": [
    {
      "name": "Scene",
      "nodes": [
        0,
        1,
        2,
        3,
        4,
        5,
        6,
        7,
        8,
        9,
        10,
        11,
        12,
        13,
        14,
        15,
        16
      ]
    }
  ],
  "scene": 0
}