{
  "asset": {
    "generator": "glTF-Transform v4.4.1",
    "version": "2.0"
  },
  "accessors": [
    {
      "type": "SCALAR",
      "componentType": 5123,
      "count": 347262,
      "bufferView": 0,
      "byteOffset": 0
    },
    {
      "type": "VEC3",
      "componentType": 5126,
      "count": 64465,
      "max": [
        2.1871323585510254,
        1.077225685119629,
        1.6456700563430786
      ],
      "min": [
        -1.8513977527618408,
        -0.2532023787498474,
        -2.1019794940948486
      ],
      "bufferView": 1,
      "byteOffset": 0
    },
    {
      "type": "VEC2",
      "componentType": 5126,
      "count": 64465,
      "bufferView": 1,
      "byteOffset": 12
    },
    {
      "type": "VEC3",
      "componentType": 5126,
      "count": 64465,
      "bufferView": 1,
      "byteOffset": 20
    }
  ],
  "bufferViews": [
    {
      "buffer": 0,
      "byteOffset": 0,
      "byteLength": 694524,
      "target": 34963
    },
    {
      "buffer": 0,
      "byteOffset": 694524,
      "byteLength": 2062880,
      "byteStride": 32,
      "target": 34962
    }
  ],
  "samplers": [
    {
      "magFilter": 9729,
      "minFilter": 9987,
      "wrapS": 10497,
      "wrapT": 10497
    }
  ],
  "textures": [
    {
      "source": 1,
      "sampler": 0
    },
    {
      "source": 0,
      "sampler": 0
    },
    {
      "source": 2,
      "sampler": 0
    }
  ],
  "images": [
    {
      "name": "coast_rocks_05_nor_gl",
      "mimeType": "image/jpeg",
      "uri": "textures/coast_rocks_05_nor_gl_2k.jpg"
    },
    {
      "name": "coast_rocks_05_diff",
      "mimeType": "image/jpeg",
      "uri": "textures/coast_rocks_05_diff_2k.jpg"
    },
    {
      "name": "coast_rocks_05_rough",
      "mimeType": "image/jpeg",
      "uri": "textures/coast_rocks_05_arm_2k.jpg"
    }
  ],
  "buffers": [
    {
      "uri": "coast_rocks_05_lod1.bin",
      "byteLength": 2757404
    }
  ],
  "materials": [
    {
      "name": "coast_rocks_05",
      "doubleSided": true,
      "pbrMetallicRoughness": {
        "metallicFactor": 0,
        "baseColorTexture": {
          "index": 0
        },
        "metallicRoughnessTexture": {
          "index": 2
        }
      },
      "normalTexture": {
        "index": 1
      }
    }
  ],
  "meshes": [
    {
      "name": "type_01_uv_map_zbrush",
      "primitives": [
        {
          "attributes": {
            "POSITION": 1,
            "TEXCOORD_0": 2,
            "NORMAL": 3
          },
          "mode": 4,
          "material": 0,
          "indices": 0
        }
      ]
    }
  ],
  "nodes": [
    {
      "name": "coast_rocks_05",
      "mesh": 0
    }
  ],
  "scenes": [
    {
      "name": "Scene",
      "nodes": [
        0
      ]
    }
  ],
  "scene": 0
}