{
  "asset": {
    "generator": "glTF-Transform v4.4.1",
    "version": "2.0"
  },
  "accessors": [
    {
      "type": "SCALAR",
      "componentType": 5123,
      "count": 366033,
      "bufferView": 0,
      "byteOffset": 0
    },
    {
      "type": "VEC3",
      "componentType": 5126,
      "count": 64701,
      "max": [
        11.474092483520508,
        1.7569206953048706,
        13.357389450073242
      ],
      "min": [
        -9.645445823669434,
        -1.4408175945281982,
        -14.912784576416016
      ],
      "bufferView": 1,
      "byteOffset": 0
    },
    {
      "type": "VEC2",
      "componentType": 5126,
      "count": 64701,
      "bufferView": 1,
      "byteOffset": 12
    },
    {
      "type": "VEC3",
      "componentType": 5126,
      "count": 64701,
      "bufferView": 1,
      "byteOffset": 20
    }
  ],
  "bufferViews": [
    {
      "buffer": 0,
      "byteOffset": 0,
      "byteLength": 732068,
      "target": 34963
    },
    {
      "buffer": 0,
      "byteOffset": 732068,
      "byteLength": 2070432,
      "byteStride": 32,
      "target": 34962
    }
  ],
  "samplers": [
    {
      "magFilter": 9729,
      "minFilter": 9987,
      "wrapS": 10497,
      "wrapT": 10497
    }
  ],
  "textures": [
    {
      "source": 1,
      "sampler": 0
    },
    {
      "source": 0,
      "sampler": 0
    },
    {
      "source": 2,
      "sampler": 0
    }
  ],
  "images": [
    {
      "name": "coast_rocks_03_nor_gl",
      "mimeType": "image/jpeg",
      "uri": "textures/coast_rocks_03_nor_gl_2k.jpg"
    },
    {
      "name": "coast_rocks_03_diff",
      "mimeType": "image/jpeg",
      "uri": "textures/coast_rocks_03_diff_2k.jpg"
    },
    {
      "name": "coast_rocks_03_rough",
      "mimeType": "image/jpeg",
      "uri": "textures/coast_rocks_03_arm_2k.jpg"
    }
  ],
  "buffers": [
    {
      "uri": "coast_rocks_03_lod1.bin",
      "byteLength": 2802500
    }
  ],
  "materials": [
    {
      "name": "coast_rocks_03",
      "doubleSided": true,
      "pbrMetallicRoughness": {
        "metallicFactor": 0,
        "baseColorTexture": {
          "index": 0
        },
        "metallicRoughnessTexture": {
          "index": 2
        }
      },
      "normalTexture": {
        "index": 1
      }
    }
  ],
  "meshes": [
    {
      "name": "Plane1.001",
      "primitives": [
        {
          "attributes": {
            "POSITION": 1,
            "TEXCOORD_0": 2,
            "NORMAL": 3
          },
          "mode": 4,
          "material": 0,
          "indices": 0
        }
      ]
    }
  ],
  "nodes": [
    {
      "name": "coast_rocks_03",
      "mesh": 0
    }
  ],
  "scenes": [
    {
      "name": "Scene",
      "nodes": [
        0
      ]
    }
  ],
  "scene": 0
}